<svg width="63" height="63" viewBox="0 0 63 63" fill="none" xmlns="http://www.w3.org/2000/svg">
<circle cx="31.5" cy="31.5" r="31.5" fill="#676BEB"/>
<path d="M22.0187 25C22.0187 24.7348 22.1241 24.4804 22.3116 24.2929C22.4991 24.1054 22.7535 24 23.0187 24H28.0187C28.2839 24 28.5383 24.1054 28.7258 24.2929C28.9134 24.4804 29.0187 24.7348 29.0187 25V30C29.0187 30.2652 28.9134 30.5196 28.7258 30.7071C28.5383 30.8946 28.2839 31 28.0187 31H23.0187C22.7535 31 22.4991 30.8946 22.3116 30.7071C22.1241 30.5196 22.0187 30.2652 22.0187 30V25ZM23.5187 29.5H27.5187V25.5H23.5187V29.5ZM31.7687 24.5C31.5698 24.5 31.379 24.579 31.2384 24.7197C31.0977 24.8603 31.0187 25.0511 31.0187 25.25C31.0187 25.4489 31.0977 25.6397 31.2384 25.7803C31.379 25.921 31.5698 26 31.7687 26H39.2687C39.4676 26 39.6584 25.921 39.799 25.7803C39.9397 25.6397 40.0187 25.4489 40.0187 25.25C40.0187 25.0511 39.9397 24.8603 39.799 24.7197C39.6584 24.579 39.4676 24.5 39.2687 24.5H31.7687ZM31.7687 30.5C31.5698 30.5 31.379 30.579 31.2384 30.7197C31.0977 30.8603 31.0187 31.0511 31.0187 31.25C31.0187 31.4489 31.0977 31.6397 31.2384 31.7803C31.379 31.921 31.5698 32 31.7687 32H39.2687C39.4676 32 39.6584 31.921 39.799 31.7803C39.9397 31.6397 40.0187 31.4489 40.0187 31.25C40.0187 31.0511 39.9397 30.8603 39.799 30.7197C39.6584 30.579 39.4676 30.5 39.2687 30.5H31.7687ZM31.7687 36.5C31.5698 36.5 31.379 36.579 31.2384 36.7197C31.0977 36.8603 31.0187 37.0511 31.0187 37.25C31.0187 37.4489 31.0977 37.6397 31.2384 37.7803C31.379 37.921 31.5698 38 31.7687 38H39.2687C39.4676 38 39.6584 37.921 39.799 37.7803C39.9397 37.6397 40.0187 37.4489 40.0187 37.25C40.0187 37.0511 39.9397 36.8603 39.799 36.7197C39.6584 36.579 39.4676 36.5 39.2687 36.5H31.7687ZM28.7987 33.97C28.9392 34.1106 29.018 34.3012 29.018 34.5C29.018 34.6988 28.9392 34.8894 28.7987 35.03L25.2987 38.53C25.1581 38.6705 24.9675 38.7493 24.7687 38.7493C24.57 38.7493 24.3793 38.6705 24.2387 38.53L22.2387 36.53C22.165 36.4613 22.1059 36.3785 22.0649 36.2865C22.0239 36.1945 22.0019 36.0952 22.0001 35.9945C21.9983 35.8938 22.0169 35.7938 22.0546 35.7004C22.0923 35.607 22.1485 35.5222 22.2197 35.451C22.2909 35.3797 22.3757 35.3236 22.4691 35.2859C22.5625 35.2482 22.6625 35.2296 22.7632 35.2314C22.8639 35.2332 22.9632 35.2552 23.0552 35.2962C23.1472 35.3372 23.23 35.3963 23.2987 35.47L24.7687 36.94L27.7387 33.97C27.8793 33.8295 28.07 33.7507 28.2687 33.7507C28.4675 33.7507 28.6581 33.8295 28.7987 33.97Z" fill="white"/>
</svg>
