<svg width="63" height="63" viewBox="0 0 63 63" fill="none" xmlns="http://www.w3.org/2000/svg">
<circle cx="31.5" cy="31.5" r="31.5" fill="#676BEB"/>
<path d="M18.375 43.9872C18.4711 44.0122 18.5731 43.9984 18.659 43.9487C18.7449 43.899 18.8078 43.8174 18.834 43.7217C19.6065 40.8394 22.746 40.0924 24.6225 39.6454C25.0927 39.5337 25.464 39.4452 25.7055 39.3409C27.843 38.4132 28.5398 36.9207 28.7483 35.8317C28.7606 35.7669 28.7557 35.7 28.734 35.6377C28.7123 35.5754 28.6745 35.52 28.6245 35.4769C27.5115 34.5162 26.5725 33.0739 25.98 31.4149C25.9631 31.3674 25.9369 31.3238 25.9027 31.2867C25.119 30.4347 24.669 29.5339 24.669 28.8162C24.669 28.3969 24.8273 28.1157 25.1835 27.9034C25.2369 27.8715 25.2815 27.8269 25.3133 27.7735C25.3451 27.72 25.3631 27.6596 25.3657 27.5974C25.5315 23.7769 28.2525 20.7694 31.59 20.7499L31.6702 20.7552C35.0243 20.8017 37.728 23.8737 37.8248 27.7482C37.8262 27.8011 37.8388 27.8532 37.8619 27.9009C37.8849 27.9486 37.9177 27.9909 37.9583 28.0249C38.193 28.2237 38.3025 28.4757 38.3025 28.8177C38.3025 29.4184 37.9823 30.1572 37.4018 30.8967C37.3738 30.9321 37.3525 30.9722 37.3388 31.0152C36.7388 32.9172 35.6618 34.5964 34.3853 35.6239C34.3322 35.6665 34.2918 35.7228 34.2683 35.7866C34.2448 35.8504 34.2391 35.9194 34.2518 35.9862C34.4603 37.0744 35.157 38.5662 37.2945 39.4954C37.5473 39.6049 37.9395 39.6904 38.4368 39.7977C40.2945 40.1997 43.4032 40.8739 44.166 43.7217C44.1788 43.7693 44.2009 43.8139 44.2309 43.8529C44.2609 43.892 44.2984 43.9247 44.341 43.9493C44.3837 43.9739 44.4308 43.9898 44.4797 43.9962C44.5285 44.0026 44.5782 43.9993 44.6257 43.9864C44.6733 43.9736 44.7179 43.9516 44.757 43.9216C44.796 43.8915 44.8288 43.8541 44.8533 43.8114C44.8779 43.7687 44.8939 43.7216 44.9002 43.6727C44.9066 43.6239 44.9033 43.5743 44.8905 43.5267C44.0092 40.2364 40.4873 39.4737 38.5958 39.0642C38.157 38.9689 37.7782 38.8872 37.5938 38.8062C36.1987 38.2002 35.3393 37.2769 35.0355 36.0574C36.3308 34.9452 37.4145 33.2292 38.034 31.3047C38.6917 30.4497 39.0532 29.5692 39.0532 28.8169C39.0532 28.3152 38.8913 27.8967 38.5703 27.5697C38.3918 23.3667 35.3925 20.0569 31.6702 20.0037L31.5585 20.0022C27.9037 20.0217 24.8917 23.2444 24.6285 27.3747C24.159 27.7197 23.9205 28.2034 23.9205 28.8177C23.9205 29.7049 24.4222 30.7662 25.3005 31.7397C25.9072 33.4069 26.8477 34.8717 27.9675 35.8969C27.6652 37.1209 26.805 38.0472 25.407 38.6539C25.2263 38.7327 24.8662 38.8189 24.4492 38.9179C22.5435 39.3709 18.9975 40.2147 18.1095 43.5282C18.0839 43.6243 18.0974 43.7266 18.1472 43.8127C18.197 43.8987 18.2789 43.9615 18.375 43.9872Z" fill="#FFF8F8"/>
</svg>
