<svg width="122" height="83" viewBox="0 0 122 83" fill="none" xmlns="http://www.w3.org/2000/svg">
<path d="M12 41.5C12 26.3122 24.3122 14 39.5 14H122V69H39.5C24.3122 69 12 56.6878 12 41.5Z" fill="#676BEB"/>
<path d="M24.8316 24.3623C15.2388 33.6994 15.2388 49.1534 24.8316 58.4905C34.0352 67.4417 48.8176 67.4417 58.0212 58.4905C67.6173 49.1534 67.6157 33.701 58.0212 24.3655C48.8176 15.4111 34.0352 15.4111 24.8316 24.3623ZM42.5786 27.2055L51.016 48.9511C51.4755 50.1858 49.901 51.1988 48.9657 50.2635L41.7484 43.0462C41.6626 42.9604 41.5462 42.9122 41.4248 42.9122C41.3034 42.9122 41.187 42.9604 41.1011 43.0462L33.8855 50.2619C32.9534 51.194 31.3878 50.1915 31.8433 48.9592L40.2742 27.2055C40.361 26.9698 40.518 26.7663 40.724 26.6226C40.9301 26.4789 41.1752 26.4019 41.4264 26.4019C41.6776 26.4019 41.9227 26.479 42.1288 26.6226C42.3348 26.7663 42.4918 26.9698 42.5786 27.2055Z" fill="#FBFBFF"/>
</svg>
