<svg width="63" height="63" viewBox="0 0 63 63" fill="none" xmlns="http://www.w3.org/2000/svg">
<circle cx="31.5" cy="31.5" r="31.5" fill="#676BEB"/>
<path d="M31.25 39.2903C29.899 38.3393 28.335 37.7333 26.695 37.5293C25.5318 37.293 24.3468 37.1813 23.16 37.1963C23.0081 37.1976 22.8575 37.1688 22.7168 37.1116C22.5762 37.0544 22.4482 36.9699 22.3404 36.863C22.2325 36.7561 22.1469 36.6289 22.0885 36.4887C22.0301 36.3485 22 36.1981 22 36.0463L22.021 25.1533C22.0204 24.861 22.131 24.5794 22.3305 24.3658C22.53 24.1522 22.8034 24.0226 23.095 24.0033C24.3031 23.9793 25.5103 24.0872 26.695 24.3253C28.3332 24.5366 29.896 25.1412 31.25 26.0873M31.25 39.2903V26.0873M31.25 39.2903C32.601 38.3393 34.165 37.7333 35.805 37.5293C36.9682 37.293 38.1532 37.1813 39.34 37.1963C39.4919 37.1976 39.6425 37.1688 39.7832 37.1116C39.9238 37.0544 40.0518 36.9699 40.1596 36.863C40.2675 36.7561 40.3531 36.6289 40.4115 36.4887C40.4699 36.3485 40.5 36.1981 40.5 36.0463L40.478 25.1533C40.4787 24.8612 40.3681 24.5797 40.1688 24.3662C39.9696 24.1526 39.6965 24.0228 39.405 24.0033C38.1969 23.9793 36.9897 24.0872 35.805 24.3253C34.1668 24.5366 32.604 25.1412 31.25 26.0873" stroke="white" stroke-width="1.5" stroke-linecap="round" stroke-linejoin="round"/>
</svg>
