<svg width="63" height="63" viewBox="0 0 63 63" fill="none" xmlns="http://www.w3.org/2000/svg">
<circle cx="31.5" cy="31.5" r="31.5" fill="#676BEB"/>
<path d="M29.55 23C25.698 23.007 23.68 23.102 22.391 24.39C21 25.783 21 28.022 21 32.5C21 36.978 21 39.217 22.391 40.609C23.783 42 26.021 42 30.501 42C34.979 42 37.218 42 38.609 40.609C39.899 39.319 39.993 37.302 40 33.449" stroke="white" stroke-width="1.5" stroke-linecap="round" stroke-linejoin="round"/>
<path d="M30.056 33C29.332 23.866 35.802 21.276 40.98 22.164C41.189 25.191 39.707 26.324 36.887 26.848C37.432 27.418 38.394 28.134 38.29 29.028C38.216 29.666 37.784 29.978 36.918 30.604C35.022 31.974 32.826 32.838 30.056 33Z" stroke="white" stroke-width="1.5" stroke-linecap="round" stroke-linejoin="round"/>
<path d="M28 37C30 31.5 31.96 29.636 34 28" stroke="white" stroke-width="1.5" stroke-linecap="round" stroke-linejoin="round"/>
</svg>
