<svg width="56" height="56" viewBox="0 0 56 56" fill="none" xmlns="http://www.w3.org/2000/svg">
<circle cx="28" cy="28" r="28" fill="#676BEB"/>
<path d="M28.058 36C25.836 36 23.947 35.222 22.391 33.666C20.835 32.11 20.0573 30.2214 20.058 28C20.058 26.3534 20.529 24.8417 21.471 23.465C22.4137 22.087 23.7503 21.096 25.481 20.492C25.685 20.4207 25.8637 20.402 26.017 20.436C26.1703 20.47 26.2973 20.5364 26.398 20.635C26.4987 20.7337 26.5627 20.8604 26.59 21.015C26.6167 21.1704 26.5957 21.3334 26.527 21.504C26.3977 21.822 26.3037 22.1457 26.245 22.475C26.1863 22.8044 26.1573 23.146 26.158 23.5C26.158 25.282 26.779 26.7944 28.021 28.037C29.2637 29.279 30.776 29.9 32.558 29.9C33.0233 29.9 33.449 29.8507 33.835 29.752C34.2216 29.6534 34.551 29.5734 34.823 29.512C34.9683 29.4854 35.1013 29.4887 35.222 29.522C35.3427 29.5554 35.44 29.614 35.514 29.698C35.5907 29.7814 35.6427 29.884 35.67 30.006C35.6973 30.128 35.6816 30.267 35.623 30.423C35.1463 32.0564 34.212 33.394 32.82 34.436C31.428 35.478 29.8407 35.9994 28.058 36Z" fill="white"/>
</svg>
