<svg width="63" height="63" viewBox="0 0 63 63" fill="none" xmlns="http://www.w3.org/2000/svg">
<circle cx="31.5" cy="31.5" r="31.5" fill="#676BEB"/>
<path d="M30.875 23C29.84 23 28.8485 23.195 27.9395 23.5565C27.6622 23.6667 27.4401 23.8825 27.3219 24.1565C27.2038 24.4305 27.1993 24.7402 27.3095 25.0175C27.4197 25.2948 27.6355 25.5169 27.9095 25.6351C28.1835 25.7532 28.4932 25.7577 28.7705 25.6475C29.4155 25.3925 30.125 25.25 30.875 25.25C32.0404 25.2412 33.1794 25.5975 34.132 26.269C35.0846 26.9405 35.803 27.8934 36.1865 28.994C36.2632 29.2149 36.4068 29.4064 36.5974 29.5419C36.788 29.6774 37.0161 29.7501 37.25 29.75C39.764 29.75 41.75 31.736 41.75 34.25C41.7558 35.2997 41.3945 36.3185 40.7285 37.13C40.548 37.3609 40.4647 37.6532 40.4964 37.9446C40.5282 38.236 40.6723 38.5035 40.8983 38.6901C41.1243 38.8768 41.4142 38.9679 41.7063 38.9441C41.9985 38.9203 42.2698 38.7833 42.4625 38.5625C43.4617 37.348 44.0055 35.8227 44 34.25C44.0102 32.5911 43.4051 30.9872 42.3016 29.7485C41.1981 28.5098 39.6746 27.7242 38.0255 27.5435C37.395 26.1801 36.3857 25.0268 35.1178 24.2211C33.8499 23.4155 32.3771 22.9916 30.875 23ZM21.08 22.58C21.2909 22.3693 21.5769 22.251 21.875 22.251C22.1731 22.251 22.4591 22.3693 22.67 22.58L26.1365 26.045C26.1815 26.083 26.2215 26.123 26.2565 26.165L39.053 38.963L39.1055 39.014L42.17 42.08C42.3181 42.2175 42.4263 42.3924 42.4834 42.5863C42.5404 42.7801 42.5441 42.9858 42.494 43.1816C42.4439 43.3774 42.342 43.556 42.1989 43.6987C42.0558 43.8415 41.8769 43.9429 41.681 43.9925C41.4854 44.0424 41.28 44.0389 41.0863 43.9821C40.8926 43.9254 40.7177 43.8176 40.58 43.67L37.88 40.9715C37.6705 40.9898 37.4603 40.9993 37.25 41H25.25C24.5591 41.0052 23.8741 40.8729 23.2348 40.6109C22.5955 40.3489 22.0147 39.9624 21.5261 39.4739C21.0376 38.9853 20.6511 38.4045 20.3891 37.7652C20.1271 37.1259 19.9948 36.4409 20 35.75C20 33.635 21.2135 31.829 23.0015 30.995C22.9725 29.6215 23.3068 28.2648 23.9705 27.062L21.08 24.17C20.8693 23.959 20.751 23.6731 20.751 23.375C20.751 23.0769 20.8693 22.7909 21.08 22.58ZM25.25 30.875C25.256 31.117 25.2765 31.3575 25.3115 31.5965C25.3508 31.8711 25.2873 32.1506 25.133 32.3812C24.9788 32.6119 24.7448 32.7774 24.476 32.846C23.186 33.176 22.25 34.325 22.25 35.75C22.25 37.436 23.564 38.75 25.25 38.75H35.66L25.6565 28.748C25.3863 29.4245 25.2483 30.1465 25.25 30.875Z" fill="white"/>
</svg>
