<svg width="63" height="63" viewBox="0 0 63 63" fill="none" xmlns="http://www.w3.org/2000/svg">
<circle cx="31.5" cy="31.5" r="31.5" fill="#676BEB"/>
<path d="M34.665 35.5445C34.6064 35.5368 34.5469 35.5434 34.4914 35.5636C34.4359 35.5838 34.3861 35.6172 34.3462 35.6607C34.3059 35.7038 34.2763 35.7558 34.2599 35.8125C34.2435 35.8692 34.2407 35.929 34.2517 35.987C34.4587 37.0745 35.1555 38.567 37.2945 39.4962C37.548 39.6057 37.9395 39.6912 38.436 39.7985C40.2945 40.2005 43.4025 40.874 44.166 43.7225C44.1788 43.7701 44.2008 43.8147 44.2309 43.8538C44.2609 43.8929 44.2984 43.9257 44.3411 43.9503C44.3839 43.9749 44.431 43.9909 44.4799 43.9973C44.5288 44.0037 44.5785 44.0004 44.6261 43.9876C44.6737 43.9748 44.7184 43.9527 44.7575 43.9227C44.7965 43.8926 44.8293 43.8552 44.854 43.8124C44.8786 43.7697 44.8945 43.7226 44.9009 43.6737C44.9073 43.6248 44.904 43.5751 44.8912 43.5275C44.0085 40.2372 40.4872 39.4745 38.595 39.065C38.157 38.9697 37.7782 38.888 37.593 38.807C36.3075 38.249 35.4772 37.421 35.1172 36.3425C38.6887 36.608 40.3057 35.1852 40.377 35.1207C40.4209 35.0809 40.4548 35.0313 40.4758 34.9759C40.4969 34.9205 40.5045 34.8609 40.498 34.802C40.4916 34.7431 40.4713 34.6865 40.4388 34.637C40.4063 34.5874 40.3625 34.5463 40.311 34.517C38.25 33.3395 38.25 29.2707 38.25 27.7385C38.25 23.4537 35.364 20.057 31.6642 20.0037L31.5585 20.0015C27.8047 20.0225 24.75 23.423 24.75 27.5825C24.75 29.1147 24.75 33.1842 22.689 34.361C22.6359 34.3918 22.5911 34.4352 22.5585 34.4873C22.526 34.5394 22.5066 34.5987 22.5022 34.6599C22.4978 34.7212 22.5083 34.7827 22.5331 34.8389C22.5578 34.8952 22.5958 34.9445 22.644 34.9827C22.7475 35.063 25.035 36.8135 27.8497 36.2817C27.4732 37.3152 26.6542 38.1102 25.4062 38.6525C25.2255 38.7312 24.8655 38.8175 24.4485 38.9165C22.5435 39.3695 18.9967 40.2132 18.1087 43.5267C18.096 43.5743 18.0927 43.624 18.0992 43.6729C18.1056 43.7218 18.1216 43.7689 18.1463 43.8116C18.1961 43.8978 18.2781 43.9607 18.3742 43.9865C18.4704 44.0122 18.5729 43.9987 18.6591 43.9489C18.7453 43.8991 18.8082 43.8171 18.834 43.721C19.6057 40.838 22.7467 40.0917 24.6225 39.6447C25.0927 39.533 25.464 39.4445 25.7055 39.3402C27.8445 38.411 28.5405 36.9185 28.7482 35.831C28.7603 35.7673 28.7557 35.7015 28.7348 35.6401C28.7139 35.5787 28.6774 35.5238 28.629 35.4807C28.5806 35.4376 28.5219 35.4077 28.4585 35.3941C28.3952 35.3804 28.3293 35.3834 28.2675 35.4027C26.2372 36.0417 24.3615 35.1627 23.5417 34.6752C25.5 33.0357 25.5 29.2625 25.5 27.5825C25.5 23.8347 28.2195 20.7702 31.59 20.75L31.6695 20.7545C34.9935 20.8017 37.5 23.804 37.5 27.7385C37.5 29.4192 37.5 33.2007 39.4665 34.8402C38.7892 35.2272 37.245 35.8535 34.665 35.5445Z" fill="white"/>
</svg>
